<svg width="139" height="53" viewBox="0 0 139 53" fill="none" xmlns="http://www.w3.org/2000/svg">
<g clip-path="url(#clip0_291_1378)">
<path d="M54.2091 28.5694C54.2091 28.5694 53.1377 29.6951 51.7006 29.6783C50.3434 29.6616 49.0828 28.7744 49.0996 27.0629C49.1206 25.548 50.1753 24.4599 51.6292 24.4767C52.1418 24.4809 52.8309 24.6859 52.8267 25.1504V25.6066L54.6714 25.6317L54.684 24.6441C54.7008 23.1961 52.7385 22.7274 51.6502 22.7149C48.7592 22.6814 47.0154 24.6859 46.986 27.0545C46.9566 29.49 48.7214 31.4694 51.4947 31.5029C53.7932 31.528 55.0663 30.0299 55.0663 30.0299L54.2091 28.5694Z" fill="white"/>
<path d="M60.5373 22.8196C57.9783 22.7903 55.9067 24.5939 55.8773 27.1592C55.8479 29.7412 57.8733 31.5783 60.4364 31.6076C63.0122 31.6369 65.0838 29.85 65.1132 27.268C65.1426 24.6985 63.1173 22.8489 60.5373 22.8196ZM60.4574 29.829C59.1002 29.8123 57.9741 28.7452 57.9951 27.1843C58.0119 25.6359 59.1632 24.5813 60.5163 24.5981C61.8903 24.6106 63.0164 25.6945 62.9996 27.2429C62.9828 28.8038 61.8273 29.8458 60.4574 29.829Z" fill="white"/>
<path d="M75.2819 29.8206C75.0508 29.8206 74.9163 29.6867 74.9247 29.4566L74.9625 26.1799C74.9877 23.9578 73.9246 22.9744 72.0548 22.9534C70.353 22.9325 69.4328 23.9578 69.063 24.6608H69.0294C69.0294 24.6608 69.063 24.4809 69.0672 24.3009V24.054C69.0756 23.4598 68.7184 23.1125 67.9705 23.1041L66.0418 23.079L66.0166 24.8575L66.6805 24.8659C66.9116 24.8701 67.0419 24.9831 67.0377 25.23L66.9662 31.4862L69.0462 31.5113L69.0924 27.6571C69.0966 27.2637 69.1512 26.8871 69.2731 26.5398C69.5798 25.5396 70.4328 24.845 71.5547 24.8575C72.6136 24.8701 72.87 25.5647 72.8574 26.5858L72.8111 30.4358C72.8027 31.2267 73.1305 31.5573 73.9246 31.5699L75.9248 31.5908L75.9416 29.829L75.2819 29.8206Z" fill="white"/>
<path d="M85.9085 29.9461C85.6774 29.9419 85.5429 29.8122 85.5472 29.5779L85.585 26.3054C85.6144 24.0833 84.5513 23.0999 82.6814 23.0789C80.9797 23.058 80.0594 24.0833 79.6855 24.7863H79.6518C79.6518 24.7863 79.6897 24.6064 79.6939 24.4264V24.1795C79.7023 23.5853 79.3409 23.2338 78.5972 23.2254L76.6643 23.2045L76.6432 24.983H77.303C77.5341 24.9914 77.6685 25.1085 77.6643 25.3554L77.5887 31.6117L79.6728 31.6326L79.7191 27.7826C79.7233 27.3892 79.7779 27.0084 79.8997 26.6653C80.2065 25.6651 81.0553 24.9704 82.1814 24.983C83.2361 24.9914 83.4966 25.686 83.4798 26.7071L83.4378 30.5571C83.4252 31.348 83.7571 31.6786 84.5471 31.6912L86.5472 31.7163L86.5682 29.9503H85.9085V29.9461Z" fill="white"/>
<path d="M95.4427 27.2093C95.4679 24.9872 94.1653 23.2129 91.7534 23.1836C89.2239 23.1543 87.4548 24.9454 87.4212 27.5274C87.396 29.9127 89.1062 31.9423 91.9005 31.9716C93.9973 31.9967 95.3041 30.7454 95.3041 30.7454L94.4427 29.2891C94.4427 29.2891 93.4258 30.214 92.0686 30.1972C90.7954 30.1847 89.7155 29.398 89.5684 27.9165L95.3839 27.9835C95.3839 27.9835 95.4385 27.4562 95.4427 27.2093ZM89.6525 26.4686C89.892 25.4182 90.6609 24.7822 91.7366 24.7989C92.5938 24.8073 93.2787 25.5061 93.3039 26.5105L89.6525 26.4686Z" fill="white"/>
<path d="M103.851 29.1511C103.851 29.1511 102.779 30.2726 101.342 30.2558C99.985 30.2391 98.7244 29.3561 98.7455 27.6446C98.7623 26.1297 99.8169 25.0374 101.271 25.0542C101.783 25.0626 102.473 25.2676 102.468 25.7279V26.1883L104.313 26.2092L104.326 25.2216C104.342 23.7737 102.38 23.3091 101.292 23.2924C98.4009 23.2589 96.6571 25.2676 96.6277 27.632C96.5983 30.0675 98.3631 32.0511 101.136 32.0804C103.435 32.1097 104.708 30.6116 104.708 30.6116L103.851 29.1511Z" fill="white"/>
<path d="M112.082 29.1176L112.07 29.8248C112.07 30.055 111.935 30.1847 111.704 30.1805L108.267 30.1429C107.952 30.1387 107.822 30.055 107.822 29.8416C107.851 27.7157 113.519 27.5525 113.566 23.6021C113.591 21.4302 111.855 20.1245 109.805 20.1036C108.288 20.0827 106.229 20.769 106.208 22.3174L106.195 23.4682L108.145 23.4891L108.154 22.9785C108.154 22.535 108.775 22.0663 109.7 22.0746C110.708 22.0872 111.393 22.6898 111.385 23.6104C111.351 26.4561 105.62 26.159 105.569 30.3898C105.557 31.4903 105.733 31.9381 106.759 31.9507L112.872 32.0218C113.662 32.0302 113.998 31.7038 114.007 30.9129L114.028 29.1385L112.082 29.1176Z" fill="white"/>
<path d="M121.133 29.2306L121.125 29.9378C121.121 30.168 120.986 30.2977 120.755 30.2935L118.045 30.2642C117.814 30.2601 117.684 30.1262 117.688 29.896L117.721 27.1173L121.52 27.1592L121.541 25.3346L117.742 25.2886L117.776 22.2295L120.423 22.2588C120.654 22.263 120.785 22.3969 120.78 22.6271L120.772 23.3343L122.738 23.3552L122.759 21.5767C122.768 20.8025 122.428 20.4552 121.646 20.4468L117.482 20.3882V20.4008L116.7 20.384C116.104 20.3715 115.612 20.8527 115.612 21.447V22.2044L115.511 30.9422C115.503 31.7289 115.826 32.0637 116.62 32.0721L121.94 32.1348C122.717 32.1432 123.07 31.821 123.079 31.0301L123.1 29.2515L121.133 29.2306Z" fill="white"/>
<path d="M128.886 20.5305L124.113 20.4761L124.087 22.3006L125.163 22.3132L125.058 31.051C125.05 31.8419 125.377 32.1767 126.171 32.185L128.751 32.2143C132.365 32.2562 134.756 30.1136 134.798 26.4268C134.844 22.74 132.504 20.5723 128.886 20.5305ZM128.655 30.3856L127.596 30.373C127.369 30.373 127.235 30.2391 127.239 30.009L127.327 22.3383L128.751 22.355C131.063 22.3843 132.584 23.7988 132.554 26.3975C132.521 29.0339 131 30.4149 128.655 30.3856Z" fill="white"/>
<path d="M137.256 32.2143C138.219 32.2143 139 31.4368 139 30.4776C139 29.5185 138.219 28.741 137.256 28.741C136.293 28.741 135.512 29.5185 135.512 30.4776C135.512 31.4368 136.293 32.2143 137.256 32.2143Z" fill="white"/>
<path d="M24.8755 5.40252C27.0647 4.18894 29.7539 5.79589 29.7119 8.29L29.6195 13.8767L29.527 19.4633C29.485 21.9574 26.7453 23.4723 24.5981 22.1918L19.7869 19.3168L14.9757 16.4419C12.8243 15.1572 12.8789 12.0396 15.0682 10.826L19.9718 8.11006L24.8755 5.39415V5.40252Z" fill="white"/>
<path d="M13.8874 34.5787C11.6982 35.7923 9.00894 34.1854 9.05096 31.6912L9.1434 26.1046L9.23585 20.5179C9.27787 18.0238 12.0175 16.5089 14.1647 17.7895L18.9759 20.6644L23.7871 23.5393C25.9385 24.8241 25.8839 27.9417 23.6947 29.1553L18.791 31.8712L13.8874 34.5871V34.5787Z" fill="white"/>
<path d="M24.5855 30.2642C26.7748 29.0506 29.464 30.6576 29.422 33.1517L29.3295 38.7384L29.2371 44.325C29.1951 46.8191 26.4554 48.334 24.3082 47.0535L19.497 44.1785L14.6858 41.3036C12.5344 40.0189 12.589 36.9012 14.7782 35.6877L19.6819 32.9718L24.5855 30.2558V30.2642Z" fill="white"/>
<path d="M31.0019 19.6181C31.0607 16.0653 31.128 11.9893 31.1868 8.43646C31.2288 5.94234 33.9643 4.42745 36.1156 5.71218C38.5234 7.15173 40.9269 8.58711 40.9269 8.58711L45.7381 11.4579C47.8895 12.7426 47.839 15.8602 45.6498 17.0696C42.532 18.7937 38.952 20.7773 35.8383 22.5014C33.6491 23.715 30.9641 22.1123 31.0061 19.614L31.0019 19.6181Z" fill="white"/>
<path d="M43.5615 7.90507C45.6153 7.90507 47.2802 6.24695 47.2802 4.20156C47.2802 2.15617 45.6153 0.498047 43.5615 0.498047C41.5077 0.498047 39.8428 2.15617 39.8428 4.20156C39.8428 6.24695 41.5077 7.90507 43.5615 7.90507Z" fill="white"/>
<path d="M17.2069 7.40703C19.2607 7.40703 20.9256 5.74891 20.9256 3.70351C20.9256 1.65812 19.2607 0 17.2069 0C15.1531 0 13.4882 1.65812 13.4882 3.70351C13.4882 5.74891 15.1531 7.40703 17.2069 7.40703Z" fill="white"/>
<path d="M3.71871 29.8625C5.7725 29.8625 7.43743 28.2044 7.43743 26.159C7.43743 24.1136 5.7725 22.4554 3.71871 22.4554C1.66492 22.4554 0 24.1136 0 26.159C0 28.2044 1.66492 29.8625 3.71871 29.8625Z" fill="white"/>
<path d="M30.6657 44.2204C30.6237 46.7145 33.3129 48.3215 35.5021 47.1079L40.4058 44.392L45.3095 41.6761C47.4987 40.4625 47.5533 37.3448 45.4019 36.0601L40.5907 33.1852L35.7795 30.3103C33.6281 29.0255 30.8926 30.5404 30.8506 33.0387L30.7581 38.6254L30.6657 44.212V44.2204Z" fill="white"/>
<path d="M42.5446 53C44.5984 53 46.2633 51.3419 46.2633 49.2965C46.2633 47.2511 44.5984 45.593 42.5446 45.593C40.4908 45.593 38.8259 47.2511 38.8259 49.2965C38.8259 51.3419 40.4908 53 42.5446 53Z" fill="white"/>
<path d="M16.6228 52.3136C18.6766 52.3136 20.3415 50.6555 20.3415 48.6101C20.3415 46.5647 18.6766 44.9066 16.6228 44.9066C14.569 44.9066 12.9041 46.5647 12.9041 48.6101C12.9041 50.6555 14.569 52.3136 16.6228 52.3136Z" fill="white"/>
</g>
<defs>
<clipPath id="clip0_291_1378">
<rect width="139" height="53" fill="white"/>
</clipPath>
</defs>
</svg>
