<?xml version="1.0" encoding="UTF-8"?>
<svg version="1.1" xmlns="http://www.w3.org/2000/svg" width="2250" height="832">
<path d="M0 0 C3.06507664 1.88948395 6.13894663 3.76456785 9.21240234 5.64038086 C10.17729584 6.22973419 10.17729584 6.22973419 11.16168213 6.83099365 C18.4389764 11.2682692 25.77444489 15.60648802 33.11083984 19.94506836 C44.28819173 26.5590864 55.41411477 33.25056477 66.50195312 40.01342773 C72.80435731 43.85285574 79.12738624 47.65463776 85.47802734 51.41381836 C86.18743469 51.83385132 86.89684204 52.25388428 87.62774658 52.68664551 C91.05836939 54.71658943 94.4912321 56.74262362 97.92724609 58.76342773 C134.36704473 80.24763438 134.36704473 80.24763438 139.62255859 98.46459961 C142.49834287 110.12878064 141.51838977 122.31633754 135.98583984 133.13256836 C128.5823741 144.99543159 119.10552186 150.98199223 107.11083984 157.44506836 C105.23443607 158.46571476 103.3581385 159.48655643 101.48193359 160.50756836 C98.45354641 162.15133598 95.42323583 163.79124405 92.38867188 165.42358398 C85.51912219 169.12033774 78.70432713 172.90097845 71.92333984 176.75756836 C63.27088036 181.67628885 54.57965969 186.52034384 45.86083984 191.32006836 C44.62719536 191.9993455 43.39355278 192.6786261 42.15991211 193.35791016 C41.54849869 193.69457199 40.93708527 194.03123383 40.30714417 194.37809753 C39.69580124 194.71472916 39.08445831 195.05136078 38.45458984 195.39819336 C37.84296494 195.73494583 37.23134003 196.0716983 36.60118103 196.4186554 C30.18006118 199.95532203 23.76935409 203.51060812 17.36083984 207.07006836 C16.26304199 207.67866699 15.16524414 208.28726563 14.03417969 208.91430664 C8.39888651 212.04280569 2.77963519 215.19642512 -2.81884766 218.39038086 C-3.94323242 219.0289502 -5.06761719 219.66751953 -6.22607422 220.32543945 C-8.34905351 221.53258048 -10.46847581 222.74600878 -12.58349609 223.96704102 C-26.34180643 231.77512476 -39.03093267 234.41457415 -54.54150391 230.55053711 C-66.6601565 226.548695 -74.91734389 219.08517764 -81.52978516 208.46069336 C-86.67161987 197.05409452 -86.27103865 185.8760991 -86.13134766 173.62084961 C-86.11811217 171.51272689 -86.10592405 169.40459738 -86.09469604 167.29646301 C-86.05075972 160.34568028 -85.97117266 153.39548927 -85.88916016 146.44506836 C-85.86208805 143.98834333 -85.83511152 141.53161724 -85.80822754 139.07489014 C-85.63382744 123.57775884 -85.40336334 108.08186979 -85.14453125 92.5859375 C-85.04384288 86.5379226 -84.95225721 80.48983681 -84.86517632 74.44161624 C-84.77916614 68.50405184 -84.68307852 62.56667731 -84.58327866 56.62932777 C-84.54285658 54.14602595 -84.50536701 51.66267441 -84.47101212 49.17928123 C-84.42257655 45.73796772 -84.36258747 42.29703472 -84.29980469 38.85595703 C-84.28829376 37.85817734 -84.27678284 36.86039764 -84.2649231 35.8323822 C-83.977364 21.92215475 -81.04445467 8.60036288 -70.88916016 -1.55493164 C-47.60322757 -21.8058438 -23.88494631 -14.729628 0 0 Z " fill="#F59293" transform="translate(677.88916015625,135.554931640625)"/>
<path d="M0 0 C8.92681493 7.23747745 13.91966073 16.80831275 16 28 C16.39749793 33.92541648 16.32136849 39.82635129 16.2421875 45.76171875 C16.2288985 47.58403282 16.21672014 49.40635527 16.20553589 51.22868347 C16.16851604 56.35720383 16.10864607 61.48523295 16.04283142 66.61345673 C15.9984033 70.12624623 15.95831876 73.63906553 15.91906738 77.1519165 C15.74733125 92.27962768 15.5323047 107.40641732 15.28834558 122.53310311 C15.277464 123.2080409 15.26658242 123.88297869 15.25537109 124.57836914 C15.2390119 125.59229447 15.2390119 125.59229447 15.22232223 126.62670314 C15.13339627 132.18377256 15.05385412 137.74095098 14.97601616 143.29818517 C14.8898709 149.41085931 14.79378059 155.52334101 14.6941185 161.63580894 C14.65371109 164.19560981 14.61621962 166.7554586 14.58185196 169.31534767 C14.53328997 172.8742444 14.47330973 176.43278241 14.41064453 179.99145508 C14.39913361 181.01952271 14.38762268 182.04759033 14.37576294 183.10681152 C14.07648026 198.14461168 11.87195108 212.12203486 1.1875 223.5 C-9.80155874 233.40712438 -22.20527362 237.44932291 -36.87109375 236.890625 C-53.53003283 234.99191281 -68.38298398 223.25606139 -82.3125 214.69921875 C-90.1578199 209.88026366 -98.07419158 205.18498511 -106 200.5 C-117.17544419 193.88794034 -128.29840133 187.1966252 -139.38452148 180.43603516 C-149.89518125 174.03395703 -160.47874707 167.75645326 -171.08007812 161.50585938 C-204.32062883 141.87779908 -204.32062883 141.87779908 -210 122 C-212.82453829 109.91097613 -210.5408862 97.2544972 -204.58984375 86.421875 C-197.29801394 75.31392787 -186.54333579 69.86311214 -175.15478516 63.70849609 C-171.80452524 61.89413927 -168.46892085 60.0542412 -165.13671875 58.20703125 C-160.23091319 55.48943517 -155.32066597 52.78011869 -150.40625 50.078125 C-143.38540757 46.21664737 -136.37793397 42.33136836 -129.375 38.4375 C-128.26946777 37.82285889 -127.16393555 37.20821777 -126.02490234 36.57495117 C-123.79746017 35.33638148 -121.5700837 34.09769361 -119.34277344 32.85888672 C-112.6135266 29.11681212 -105.88230425 25.37829084 -99.15087891 21.64013672 C-93.37445426 18.43194629 -87.59977921 15.22066786 -81.828125 12.00390625 C-76.18332962 8.85786207 -70.53203024 5.72372706 -64.87695312 2.59619141 C-62.36544701 1.20275735 -59.86141037 -0.20295166 -57.359375 -1.61328125 C-38.11691826 -12.35429223 -18.47578225 -13.5467308 0 0 Z " fill="#253F6D" transform="translate(555,473)"/>
<path d="M0 0 C0.82999512 0.00757324 1.65999023 0.01514648 2.51513672 0.02294922 C15.87995353 0.38049265 26.60566921 6.55358648 35.76953125 16.1015625 C42.59606609 24.69581057 45.89427325 34.88652297 45.85107422 45.76708984 C45.85068775 46.47150333 45.85030128 47.17591682 45.84990311 47.90167618 C45.8452928 50.27576127 45.8252938 52.64944079 45.8046875 55.0234375 C45.79653566 56.765165 45.78889396 58.50689495 45.78170776 60.24862671 C45.75032435 66.31181893 45.69030487 72.37458885 45.625 78.4375 C45.6127388 79.58138687 45.6004776 80.72527374 45.58784485 81.90382385 C45.40881669 98.18983762 45.17541563 114.47486466 44.91335416 130.75971818 C44.90246975 131.43633052 44.89158534 132.11294285 44.88037109 132.81005859 C44.86946465 133.48772899 44.85855821 134.16539939 44.84732127 134.86360526 C44.75853286 140.42569371 44.67893342 145.98788924 44.60101616 151.55013907 C44.51480218 157.66707572 44.41871696 163.78382206 44.3191185 169.90055466 C44.27872984 172.46232042 44.24123595 175.0241337 44.20685196 177.58598709 C43.62746355 220.07290377 43.62746355 220.07290377 29.625 234.4375 C17.63246904 244.68601911 5.01788457 247.23754598 -10.375 246.4375 C-26.13487899 244.47350292 -41.89310743 231.37228115 -55.08154297 223.31201172 C-64.13616637 217.77966451 -73.24218621 212.3396629 -82.375 206.9375 C-93.54879845 200.32518373 -104.67396753 193.63988559 -115.75512695 186.87353516 C-122.11286529 182.99664458 -128.49836301 179.17211077 -134.91796875 175.3984375 C-135.99982956 174.76128815 -135.99982956 174.76128815 -137.10354614 174.11126709 C-140.60820584 172.04755121 -144.11616056 169.98993075 -147.63085938 167.94335938 C-162.78836458 159.0632096 -174.52981059 150.40206939 -180.125 133.12109375 C-183.10141724 121.56680738 -181.64526872 109.3520845 -176.1875 98.75 C-169.62281483 88.06554173 -161.15864099 82.37346776 -150.375 76.4375 C-148.21739543 75.23837568 -146.059848 74.03914856 -143.90234375 72.83984375 C-138.93948485 70.08710562 -133.96796846 67.35039375 -128.9921875 64.62109375 C-121.8980141 60.72975135 -114.82102045 56.80829397 -107.75 52.875 C-106.64495117 52.26060059 -105.53990234 51.64620117 -104.40136719 51.01318359 C-102.17342514 49.77439061 -99.94556033 48.53545871 -97.71777344 47.29638672 C-90.98336618 43.55144246 -84.24687501 39.81024736 -77.51049805 36.06884766 C-71.82196846 32.90914942 -66.13454983 29.74748152 -60.44921875 26.58203125 C-54.83381611 23.45593081 -49.21421593 20.33748773 -43.59228516 17.22314453 C-40.42654586 15.46610877 -37.26595515 13.70005586 -34.10546875 11.93359375 C-32.15389372 10.85111547 -30.20208309 9.7690618 -28.25 8.6875 C-26.94518677 7.95333862 -26.94518677 7.95333862 -25.61401367 7.2043457 C-17.15137322 2.53983957 -9.7252247 -0.12537122 0 0 Z " fill="#F5C261" transform="translate(529.375,117.5625)"/>
<path d="M0 0 C1.45188721 0.87664307 1.45188721 0.87664307 2.93310547 1.77099609 C7.49573728 4.53065807 12.05432568 7.29679195 16.60571289 10.07495117 C25.69555944 15.62119734 34.83544759 21.07822913 44 26.5 C55.17367891 33.1125221 66.29896431 39.79761244 77.38012695 46.56396484 C83.73786529 50.44085542 90.12336301 54.26538923 96.54296875 58.0390625 C97.62482956 58.67621185 97.62482956 58.67621185 98.72854614 59.32623291 C102.23320584 61.38994879 105.74116056 63.44756925 109.25585938 65.49414062 C124.18682449 74.24130016 136.44192634 82.92025433 142 100 C145.00650852 111.94894411 143.37707631 124.72518139 137.64453125 135.5625 C136.21351813 137.83370581 134.68630849 139.91277994 133 142 C132.5565625 142.57878906 132.113125 143.15757812 131.65625 143.75390625 C122.38385147 154.38263967 106.45389888 160.430194 94.27832031 166.9777832 C87.40898021 170.67545884 80.59371303 174.4557817 73.8125 178.3125 C65.16004051 183.23122049 56.46881985 188.07527548 47.75 192.875 C46.51635552 193.55427714 45.28271294 194.23355774 44.04907227 194.9128418 C43.43765884 195.24950363 42.82624542 195.58616547 42.19630432 195.93302917 C41.5849614 196.2696608 40.97361847 196.60629242 40.34375 196.953125 C39.73212509 197.28987747 39.12050018 197.62662994 38.49034119 197.97358704 C32.06922133 201.51025367 25.65851424 205.06553976 19.25 208.625 C18.15220215 209.23359863 17.0544043 209.84219727 15.92333984 210.46923828 C10.28804666 213.59773733 4.66879535 216.75135676 -0.9296875 219.9453125 C-2.05407227 220.58388184 -3.17845703 221.22245117 -4.33691406 221.88037109 C-6.45989335 223.08751212 -8.57931565 224.30094042 -10.69433594 225.52197266 C-22.91647258 232.45825074 -34.77518535 235.70834009 -48.859375 232.90625 C-61.00005543 229.40296908 -71.04473027 222.8148733 -77.875 212.04296875 C-82.86558975 202.69760959 -84.336418 193.60491247 -84.15014648 183.10644531 C-84.1417723 182.16604023 -84.13339811 181.22563515 -84.12477016 180.25673294 C-84.09405964 177.17092178 -84.0476714 174.08559226 -84 171 C-83.97331215 168.85136512 -83.94712713 166.70272395 -83.92141724 164.55407715 C-83.83105346 157.46804052 -83.71537269 150.38250193 -83.59765625 143.296875 C-83.55513765 140.67775592 -83.51269438 138.05863561 -83.47032166 135.43951416 C-83.38173282 129.98357868 -83.29150695 124.52767196 -83.20043945 119.07177734 C-83.09650469 112.8427832 -82.99599898 106.61374036 -82.89716727 100.38466334 C-82.80043826 94.29779331 -82.70042724 88.21098116 -82.59924126 82.12418365 C-82.55729077 79.57788807 -82.51621679 77.03157786 -82.4761219 74.48525238 C-82.36493572 67.46482677 -82.234121 60.44530948 -82.07381058 53.42582703 C-82.02369464 51.09975757 -81.98041924 48.77353267 -81.94327927 46.44721985 C-81.88571878 42.9592879 -81.80367064 39.47265578 -81.71655273 35.98535156 C-81.70448068 34.95448299 -81.69240862 33.92361443 -81.67997074 32.86150742 C-81.26840829 19.07638451 -76.06813813 7.1326759 -66.03515625 -2.37109375 C-44.37385718 -19.70844828 -21.54344933 -13.03347701 0 0 Z " fill="#5DB8F1" transform="translate(671,476)"/>
<path d="M0 0 C1.45188721 0.87664307 1.45188721 0.87664307 2.93310547 1.77099609 C7.49573728 4.53065807 12.05432568 7.29679195 16.60571289 10.07495117 C25.69555944 15.62119734 34.83544759 21.07822913 44 26.5 C55.17367891 33.1125221 66.29896431 39.79761244 77.38012695 46.56396484 C83.73786529 50.44085542 90.12336301 54.26538923 96.54296875 58.0390625 C97.62482956 58.67621185 97.62482956 58.67621185 98.72854614 59.32623291 C102.23320584 61.38994879 105.74116056 63.44756925 109.25585938 65.49414062 C124.1893345 74.24292385 137.66856675 83.7042531 142.3125 101.3125 C144.60768772 113.82568691 143.08402337 127.21815798 136 138 C131.73952216 143.75765227 127.1832179 148.14308064 121.03515625 151.83984375 C120.47136261 152.17966782 119.90756897 152.51949188 119.32669067 152.86961365 C113.68480613 156.24334338 107.94167365 159.43520765 102.17108154 162.58279419 C99.65736216 163.9539488 97.14781377 165.33266808 94.6378479 166.7106781 C93.33758277 167.42441092 92.03710657 168.13775935 90.73641968 168.85072327 C84.268802 172.39654085 77.8205211 175.97666477 71.375 179.5625 C70.2701123 180.17681885 69.16522461 180.7911377 68.02685547 181.42407227 C65.7987468 182.66293969 63.5707192 183.90195293 61.34277344 185.14111328 C56.8553948 187.63650482 52.36695489 190.12998366 47.87841797 192.62329102 C45.62995354 193.87231155 43.38158082 195.12149719 41.13330078 196.37084961 C35.46011558 199.52330463 29.78580379 202.6737013 24.109375 205.8203125 C22.40575806 206.76535645 22.40575806 206.76535645 20.66772461 207.72949219 C18.4061068 208.9838104 16.14390812 210.23708186 13.88110352 211.48925781 C8.40837202 214.52391371 2.95761579 217.58928875 -2.45703125 220.7265625 C-4.00148926 221.61674072 -4.00148926 221.61674072 -5.57714844 222.52490234 C-7.49570969 223.63355084 -9.40956656 224.75040285 -11.31738281 225.87744141 C-20.11016596 230.94793545 -28.25542481 233.57017233 -38.4375 233.4375 C-39.2629834 233.42992676 -40.0884668 233.42235352 -40.93896484 233.41455078 C-54.27397818 233.05584337 -65.01085309 226.86678909 -74.14453125 217.33203125 C-82.96471038 206.24645874 -84.32421267 194.40141503 -84.15014648 180.73852539 C-84.1417723 179.46754281 -84.13339811 178.19656023 -84.12477016 176.88706303 C-84.09492607 172.92442569 -84.04943425 168.96243647 -84 165 C-83.98691425 163.80061169 -83.97382851 162.60122337 -83.96034622 161.36548996 C-83.8675361 152.97102587 -83.73693634 144.57739794 -83.59765625 136.18359375 C-83.56591666 134.21000334 -83.53417914 132.23641288 -83.50260442 130.26281983 C-83.40403033 124.10413198 -83.30305242 117.94548702 -83.20043945 111.78686523 C-83.09585094 105.50705937 -82.99549779 99.22719564 -82.89716727 92.94728893 C-82.80089106 86.80965245 -82.70078487 80.67208404 -82.59924126 74.53453255 C-82.55714296 71.96374252 -82.51607127 69.39293544 -82.4761219 66.82211113 C-82.29263126 55.0977223 -82.09209743 43.37548783 -81.57202148 31.66040039 C-81.54057321 30.864122 -81.50912493 30.06784361 -81.47672367 29.24743557 C-80.82905089 16.29753732 -74.58671526 5.73408878 -65.3359375 -3.14453125 C-44.10772779 -20.00640351 -20.98075553 -12.69305536 0 0 Z " fill="#00B0B8" transform="translate(372,302)"/>
<path d="M0 0 C8.05096222 -0.02279335 16.10189842 -0.04105314 24.15288448 -0.05181217 C27.89319517 -0.05698171 31.63348221 -0.06396837 35.3737793 -0.07543945 C78.222468 -0.20301251 78.222468 -0.20301251 90.3125 2.75 C91.05975342 2.92700439 91.80700684 3.10400879 92.5769043 3.28637695 C110.99957103 7.8478967 126.87579663 18.17674637 137.25 34.25 C149.83393989 55.84033822 152.42848645 82.05053299 147.0390625 106.328125 C141.5158557 125.8462242 130.84089764 143.02340053 113.01953125 153.4765625 C94.946971 162.59467181 76.57431717 164.51250468 56.55737305 164.33618164 C53.67273322 164.31237815 50.7890117 164.31567785 47.90429688 164.32226562 C22.2171995 164.28647477 22.2171995 164.28647477 17.15014648 160.68530273 C12.52181661 155.52755972 12.85873265 149.89076106 12.91015625 143.34765625 C12.91394791 142.40946548 12.91773956 141.47127472 12.92164612 140.50465393 C12.93982015 137.00300498 12.96899813 133.50155925 13 130 C13.0061306 129.28717613 13.0122612 128.57435226 13.01857758 127.83992767 C13.11608743 116.57053171 13.23898615 105.30149443 13.37231445 94.0324707 C13.41632477 90.3007219 13.45791581 86.56895851 13.49731445 82.8371582 C13.91842252 43.05176562 13.91842252 43.05176562 15 26 C10.05 26 5.1 26 0 26 C0 17.42 0 8.84 0 0 Z M46 27 C45.12840905 39.66416138 44.76869144 52.29670029 44.61328125 64.98828125 C44.58754743 66.94980431 44.56176421 68.91132672 44.53593445 70.87284851 C44.48347917 74.94441727 44.43447359 79.01601159 44.38745117 83.08764648 C44.3265004 88.30519686 44.25228665 93.52247265 44.17507648 98.73980427 C44.1175921 102.77254521 44.06925526 106.80535791 44.023489 110.8382473 C44.00011401 112.76362648 43.97336937 114.68896785 43.94317055 116.61425209 C43.90209462 119.29140786 43.87387403 121.96840449 43.84887695 124.64575195 C43.83390671 125.43687881 43.81893646 126.22800568 43.80351257 127.04310608 C43.78149257 130.85146275 43.83869741 133.77544187 46 137 C50.03426587 137.10051836 54.06802545 137.17222514 58.10327148 137.21972656 C59.4696119 137.23957267 60.83587059 137.26665914 62.2019043 137.30175781 C77.5388348 137.68532209 91.2723644 134.40064438 102.75 123.75 C115.21475724 110.31739102 117.7121824 92.88411615 117.13183594 75.28027344 C116.36748025 62.05975096 111.48425663 49.67736693 102.33203125 40.03515625 C92.18816204 31.18263387 79.8515798 26.838802 66.5078125 26.90234375 C65.30898437 26.90556641 64.11015625 26.90878906 62.875 26.91210938 C61.6375 26.92048828 60.4 26.92886719 59.125 26.9375 C57.86429688 26.94201172 56.60359375 26.94652344 55.3046875 26.95117188 C52.20307363 26.96292041 49.10156988 26.98021811 46 27 Z " fill="#162B4F" transform="translate(1880,333)"/>
<path d="M0 0 C1.12298744 -0.00788544 1.12298744 -0.00788544 2.2686615 -0.01593018 C4.73555577 -0.02909781 7.20180069 -0.02040118 9.66870117 -0.01025391 C11.39117048 -0.01227622 13.11363896 -0.01518897 14.83610535 -0.01895142 C18.44485634 -0.02337092 22.05338434 -0.01695818 25.66210938 -0.00292969 C30.27204401 0.01412347 34.88145312 0.00434336 39.49136829 -0.01364708 C43.0491679 -0.02452804 46.60684459 -0.02101821 50.16464806 -0.0132637 C51.86339061 -0.01127159 53.56214456 -0.013686 55.26087379 -0.02070236 C57.64426492 -0.02838383 60.02682636 -0.01661867 62.41015625 0 C63.10289642 -0.00607269 63.7956366 -0.01214539 64.5093689 -0.0184021 C70.10344832 0.05329115 75.7671551 1.09970822 80.08320332 4.85241127 C85.37168817 11.02423101 83.4620781 23.08164175 83.02416992 30.57568359 C82.81791992 34.47380859 82.61166992 38.37193359 82.39916992 42.38818359 C73.15916992 42.38818359 63.91916992 42.38818359 54.39916992 42.38818359 C54.06916992 38.09818359 53.73916992 33.80818359 53.39916992 29.38818359 C49.05637169 25.04538537 34.56396471 26.98918517 28.89916992 26.82568359 C24.11416992 26.68130859 19.32916992 26.53693359 14.39916992 26.38818359 C14.06916992 40.24818359 13.73916992 54.10818359 13.39916992 68.38818359 C30.88916992 68.38818359 48.37916992 68.38818359 66.39916992 68.38818359 C66.39916992 82.38818359 66.39916992 82.38818359 65.39916992 95.38818359 C48.23916992 95.05818359 31.07916992 94.72818359 13.39916992 94.38818359 C13.33729492 103.94787109 13.33729492 103.94787109 13.27416992 113.70068359 C13.25596191 115.7094458 13.23775391 117.71820801 13.21899414 119.7878418 C13.21315296 121.37988009 13.20805651 122.97192137 13.20385742 124.56396484 C13.18850952 125.80406311 13.18850952 125.80406311 13.17285156 127.06921387 C13.16298079 132.02336813 13.16298079 132.02336813 15.39916992 136.38818359 C17.29005429 136.82401109 17.29005429 136.82401109 19.48168945 136.72875977 C20.32240997 136.72853317 21.16313049 136.72830658 22.02932739 136.72807312 C22.93770355 136.71258926 23.84607971 136.69710541 24.78198242 136.68115234 C26.17608841 136.67478508 26.17608841 136.67478508 27.59835815 136.66828918 C30.57392048 136.65146371 33.54881148 136.61380462 36.52416992 136.57568359 C38.53848307 136.56064175 40.55280682 136.54695248 42.56713867 136.53466797 C47.51140871 136.50154754 52.45517541 136.44973888 57.39916992 136.38818359 C59.50735503 132.17181338 59.00768978 127.08594535 59.39916992 122.38818359 C73.25916992 122.88318359 73.25916992 122.88318359 87.39916992 123.38818359 C87.4683802 127.53311016 87.52800435 131.67599898 87.56396484 135.82104492 C87.57896869 137.22834093 87.59937855 138.63559084 87.62548828 140.04272461 C87.66224657 142.07596266 87.67897976 144.10857791 87.69213867 146.14208984 C87.70784912 147.36226807 87.72355957 148.58244629 87.73974609 149.83959961 C87.29072646 154.5180945 86.58969946 158.50650281 82.86520386 161.70587158 C76.84591506 165.27184165 70.52299406 164.84802161 63.73120117 164.65771484 C62.50834915 164.63997513 61.28549713 164.62223541 60.02558899 164.60395813 C57.44671535 164.56553217 54.86795282 164.51886329 52.28936768 164.4644165 C48.52015165 164.39055437 44.7524983 164.35160472 40.98266602 164.32714844 C34.90308944 164.2874523 28.82464069 164.21531648 22.74560547 164.12573242 C20.26879095 164.09185326 17.79188737 164.06403399 15.31494141 164.04174805 C11.65909913 164.00829093 8.0039426 163.9561494 4.34838867 163.89990234 C3.24742355 163.89351242 2.14645844 163.8871225 1.01213074 163.88053894 C-5.65396982 163.75246437 -11.58109756 163.50857386 -16.47583008 158.45068359 C-18.57541024 154.6014533 -18.72452506 151.09857916 -18.71386719 146.75878906 C-18.71294571 145.60025421 -18.71202423 144.44171936 -18.71107483 143.24807739 C-18.7043425 141.97173431 -18.69761017 140.69539124 -18.69067383 139.38037109 C-18.686612 138.01048854 -18.6827891 136.64060527 -18.67918396 135.27072144 C-18.62155433 117.9307655 -18.42843675 100.59122799 -18.22851562 83.25244141 C-18.1843843 79.41554965 -18.14278984 75.57864374 -18.10351562 71.74169922 C-17.98342695 60.05361 -17.83610738 48.36644456 -17.63828278 36.67939758 C-17.60287807 34.5134718 -17.57203397 32.34753008 -17.54241943 30.18151855 C-17.48782036 26.6427565 -17.40775055 23.10582607 -17.31567383 19.56787109 C-17.30371475 18.59101349 -17.29175568 17.61415588 -17.2794342 16.60769653 C-17.09640538 11.09461604 -16.40810051 7.6713116 -12.60083008 3.38818359 C-8.50332499 0.2958075 -4.97792674 -0.04325825 0 0 Z " fill="#162B4F" transform="translate(1779.600830078125,331.61181640625)"/>
<path d="M0 0 C1.01674805 0.00563965 2.03349609 0.0112793 3.08105469 0.01708984 C18.77887215 0.2710917 30.97207621 5.00746745 42.4609375 15.89453125 C45.96206646 19.69663445 48.47757255 23.65195993 50.6875 28.3125 C51.02652344 29.02277344 51.36554688 29.73304688 51.71484375 30.46484375 C55.89738059 41.43195648 55.34963148 56.86979597 51.0078125 67.6484375 C40.77036304 88.3050663 23.06301466 98.29694466 3.33959961 108.58300781 C-3.24912755 112.04978414 -9.30522723 115.91914268 -15.3125 120.3125 C-16.735625 121.3025 -16.735625 121.3025 -18.1875 122.3125 C-21.93064061 125.83545587 -24.14052883 129.45521137 -24.625 134.6875 C-24.59618063 137.23500591 -24.59618063 137.23500591 -23.3125 138.3125 C-21.70312199 138.45092635 -20.08787843 138.52191105 -18.47314453 138.56542969 C-17.44182404 138.59505798 -16.41050354 138.62468628 -15.34793091 138.6552124 C-14.22506683 138.68133606 -13.10220276 138.70745972 -11.9453125 138.734375 C-10.79964813 138.76227112 -9.65398376 138.79016724 -8.47360229 138.81890869 C-6.04415171 138.87542052 -3.61463204 138.92902384 -1.18505859 138.97998047 C2.53989971 139.06200235 6.26388108 139.16551425 9.98828125 139.26953125 C12.34372085 139.32164691 14.69918946 139.37247096 17.0546875 139.421875 C18.17350311 139.45609558 19.29231873 139.49031616 20.44503784 139.52557373 C22.00147507 139.55110321 22.00147507 139.55110321 23.58935547 139.57714844 C24.96050003 139.60926422 24.96050003 139.60926422 26.35934448 139.64202881 C29.11051793 139.49051384 29.11051793 139.49051384 31.6875 136.3125 C32.0175 132.6825 32.3475 129.0525 32.6875 125.3125 C41.9275 125.3125 51.1675 125.3125 60.6875 125.3125 C60.75888358 133.87852931 60.80126845 142.4397886 60.4375 151 C60.39109375 152.26199219 60.3446875 153.52398437 60.296875 154.82421875 C59.57809802 158.93875622 58.38352504 161.13769809 55.6875 164.3125 C51.87220653 166.26305063 48.71349904 166.56100121 44.46142578 166.55541992 C43.2204715 166.55849655 41.97951721 166.56157318 40.70095825 166.56474304 C39.34490789 166.55782459 37.98885928 166.55055618 36.6328125 166.54296875 C35.21206708 166.54177239 33.79132085 166.54132475 32.37057495 166.5415802 C29.37623191 166.54001454 26.38200823 166.53174254 23.38769531 166.51831055 C19.65120226 166.50171716 15.91484328 166.49760128 12.17831802 166.49809074 C2.68061271 166.49790083 -6.81559569 166.43607352 -16.3125 166.3125 C-17.04882156 166.30299568 -17.78514313 166.29349136 -18.54377747 166.28369904 C-22.89434216 166.22400576 -27.24382406 166.14358175 -31.59347916 166.03621864 C-33.57864349 165.98955457 -35.56409809 165.95580048 -37.54953003 165.92240906 C-38.74764313 165.88783096 -39.94575623 165.85325287 -41.18017578 165.81762695 C-42.22392365 165.79263626 -43.26767151 165.76764557 -44.3430481 165.74189758 C-48.71639685 165.1094895 -52.14269167 163.60332298 -55.125 160.3125 C-59.84272435 152.36685899 -58.39800519 138.12018787 -56.6640625 129.3203125 C-54.59973516 121.96283813 -51.06587598 116.23577561 -46.3125 110.3125 C-45.88582031 109.71179688 -45.45914062 109.11109375 -45.01953125 108.4921875 C-37.23337907 98.19050923 -24.08669423 91.89928092 -13.08520508 85.7175293 C8.65621738 74.20462827 8.65621738 74.20462827 21.6875 54.3125 C22.43034305 47.456424 21.76527205 41.98098189 17.6875 36.3125 C13.45939978 31.52390234 8.67399704 29.75620258 2.40625 29.05859375 C-4.35578098 28.72691185 -10.32456667 30.13017119 -16.3125 33.3125 C-20.64379441 37.74692047 -21.0482124 42.36602898 -21.3125 48.3125 C-30.72463252 48.44123737 -39.93337413 48.11072348 -49.3125 47.3125 C-49.80953804 23.26138159 -49.80953804 23.26138159 -43.19921875 15.2265625 C-31.66774246 3.52796337 -15.90432491 -0.09206936 0 0 Z " fill="#162B4F" transform="translate(1681.3125,327.6875)"/>
<path d="M0 0 C8.09491202 6.5641876 11.55156015 15.89127579 13.29296875 25.859375 C13.40436802 27.91324054 13.46848423 29.9699429 13.49829102 32.02661133 C13.52820885 33.85794365 13.52820885 33.85794365 13.55873108 35.72627258 C13.57544357 37.03476669 13.59215607 38.3432608 13.609375 39.69140625 C13.62996455 41.05190128 13.65096153 42.41239019 13.67234802 43.77287292 C13.72736222 47.34185823 13.77686192 50.91089927 13.82519531 54.47998047 C13.87556181 58.12667766 13.93116855 61.77329459 13.98632812 65.41992188 C14.09365681 72.56633787 14.19467252 79.71282823 14.29296875 86.859375 C18.58296875 87.189375 22.87296875 87.519375 27.29296875 87.859375 C27.31999172 91.25526188 27.33981925 94.65093266 27.35546875 98.046875 C27.36384766 99.00658203 27.37222656 99.96628906 27.38085938 100.95507812 C27.38408203 101.88642578 27.38730469 102.81777344 27.390625 103.77734375 C27.39586182 104.63094482 27.40109863 105.4845459 27.40649414 106.36401367 C27.28876198 108.95184247 26.86403919 111.33599453 26.29296875 113.859375 C22.16703032 113.9092237 18.04121123 113.94530457 13.91503906 113.96923828 C12.51461733 113.97922748 11.11421607 113.99282354 9.71386719 114.01025391 C-8.84711103 114.2353157 -8.84711103 114.2353157 -13.24780273 110.5793457 C-17.75473691 105.63440149 -17.83756999 100.8699077 -17.77294922 94.46777344 C-17.76319061 93.19585144 -17.75343201 91.92392944 -17.74337769 90.61346436 C-17.73601467 89.93848656 -17.72865166 89.26350876 -17.72106552 88.56807709 C-17.69891633 86.43968943 -17.68491816 84.31139253 -17.67337036 82.18292236 C-17.63990579 76.13337865 -17.59840046 70.08398414 -17.53564453 64.03466797 C-17.49776016 60.32658522 -17.47490151 56.6186559 -17.46133804 52.91040802 C-17.4533413 51.50551325 -17.43981522 50.10063764 -17.42040634 48.69585419 C-17.30151627 39.93543444 -17.25738211 31.84220154 -22.39453125 24.421875 C-27.94363686 20.67247932 -33.75271108 20.46506771 -40.19140625 21.32421875 C-47.32658989 22.8421072 -53.99776533 26.20374942 -58.70703125 31.859375 C-64.72190854 41.69938162 -66.98167971 50.80294733 -67.0859375 62.17578125 C-67.10293198 63.14990463 -67.11992645 64.12402802 -67.13743591 65.12767029 C-67.19020312 68.22567342 -67.23061939 71.32366954 -67.26953125 74.421875 C-67.32825154 78.48576819 -67.39250818 82.5495403 -67.4609375 86.61328125 C-67.47685944 87.58697662 -67.49278137 88.560672 -67.50918579 89.56387329 C-67.65510967 97.35908872 -68.09831872 105.08697118 -68.70703125 112.859375 C-78.27703125 112.859375 -87.84703125 112.859375 -97.70703125 112.859375 C-99.29583058 109.68177634 -98.77673453 106.26964307 -98.71289062 102.78540039 C-98.69606987 101.53398003 -98.69606987 101.53398003 -98.6789093 100.25727844 C-98.65386761 98.44240679 -98.62646269 96.62756658 -98.59700012 94.81276131 C-98.55055098 91.94280329 -98.51044063 89.07281986 -98.4720459 86.20274353 C-98.37534728 79.07342762 -98.26764281 71.94428541 -98.16021729 64.81512451 C-98.06990015 58.79473403 -97.98376209 52.77431243 -97.90327454 46.75378227 C-97.86367175 43.92244962 -97.81785824 41.09125981 -97.77185059 38.26002502 C-97.7479846 36.52760226 -97.72440925 34.79517545 -97.70117188 33.06274414 C-97.68665482 32.27250854 -97.67213776 31.48227295 -97.65718079 30.66809082 C-97.61949071 27.44819539 -97.68043377 24.93916745 -98.70703125 21.859375 C-102.99703125 21.199375 -107.28703125 20.539375 -111.70703125 19.859375 C-111.37703125 11.609375 -111.04703125 3.359375 -110.70703125 -5.140625 C-106.27731664 -5.20979926 -101.84950372 -5.26943628 -97.41967773 -5.30541992 C-95.91538108 -5.32043222 -94.41112764 -5.34084853 -92.90698242 -5.36694336 C-90.73475429 -5.40366316 -88.56310874 -5.42042661 -86.390625 -5.43359375 C-85.08665771 -5.4493042 -83.78269043 -5.46501465 -82.43920898 -5.48120117 C-77.5318131 -5.03338164 -73.42795994 -3.85794587 -69.84375 -0.28125 C-68.53076378 2.19131512 -67.99099489 4.353126 -67.51953125 7.109375 C-67.36097656 8.00140625 -67.20242188 8.8934375 -67.0390625 9.8125 C-66.92949219 10.48796875 -66.81992188 11.1634375 -66.70703125 11.859375 C-66.31773438 11.36308594 -65.9284375 10.86679687 -65.52734375 10.35546875 C-58.80168427 2.18859653 -51.08697049 -3.63711461 -40.70703125 -6.140625 C-39.96324219 -6.32367188 -39.21945312 -6.50671875 -38.453125 -6.6953125 C-25.09767023 -8.86106192 -11.50676076 -7.39066987 0 0 Z " fill="#162B4F" transform="translate(1334.70703125,376.140625)"/>
<path d="M0 0 C9.67567947 7.21245704 14.180062 16.4138915 16.0625 28.25 C16.38259591 32.91683416 16.4338909 37.57723693 16.4765625 42.25390625 C16.49592865 43.57293442 16.5152948 44.89196259 16.5352478 46.2509613 C16.58619111 49.72780571 16.6260168 53.20468846 16.66339111 56.68170166 C16.70367033 60.2416706 16.75465248 63.80148531 16.8046875 67.36132812 C16.90099791 74.32410556 16.98554364 81.28698245 17.0625 88.25 C19.63143838 89.53446919 21.82826337 89.57977144 24.6875 89.8125 C25.6367334 89.88976318 26.5859668 89.96702637 27.56396484 90.04663086 C28.80073975 90.14729858 28.80073975 90.14729858 30.0625 90.25 C30.09150455 93.8541498 30.10930018 97.45826962 30.125 101.0625 C30.13337891 102.08666016 30.14175781 103.11082031 30.15039062 104.16601562 C30.15361328 105.14892578 30.15683594 106.13183594 30.16015625 107.14453125 C30.16539307 108.05050049 30.17062988 108.95646973 30.17602539 109.88989258 C30.0625 112.25 30.0625 112.25 29.0625 115.25 C24.50934078 115.34958121 19.95682848 115.42179985 15.40283203 115.46972656 C13.85682113 115.48972503 12.31088473 115.51693331 10.76513672 115.55175781 C-6.98348929 115.94133385 -6.98348929 115.94133385 -11.9375 111.25 C-15.6958323 104.56721238 -15.3010702 96.96638777 -15.16299438 89.53578186 C-15.12417353 87.42378703 -15.10502642 85.31236749 -15.09057617 83.20007324 C-15.05078706 77.95804921 -14.97808904 72.71658101 -14.90637207 67.47491455 C-14.84686037 63.03173298 -14.80008177 58.58875786 -14.76968384 54.14527893 C-14.75044925 52.07949941 -14.71294173 50.01459536 -14.67456055 47.94909668 C-14.6205769 41.0218538 -14.63392631 34.50838168 -17.9375 28.25 C-22.2972572 23.8902428 -25.97327444 23.07398127 -32 22.9375 C-40.5733132 23.0233285 -47.9824031 25.36747476 -54.33984375 31.2890625 C-61.87125553 40.53299579 -64.20411952 51.4774705 -64.31640625 63.05859375 C-64.33340073 63.9835817 -64.3503952 64.90856964 -64.36790466 65.86158752 C-64.42063557 68.80348977 -64.46104923 71.74538588 -64.5 74.6875 C-64.5589393 78.54045541 -64.62337272 82.39328862 -64.69140625 86.24609375 C-64.70732819 87.17795502 -64.72325012 88.10981628 -64.73965454 89.06991577 C-64.90243645 97.48443838 -65.37768284 105.85274254 -65.9375 114.25 C-75.5075 114.25 -85.0775 114.25 -94.9375 114.25 C-95.2675 84.22 -95.5975 54.19 -95.9375 23.25 C-100.2275 22.92 -104.5175 22.59 -108.9375 22.25 C-108.6075 13.67 -108.2775 5.09 -107.9375 -3.75 C-103.66848434 -3.81926888 -99.40145631 -3.87887559 -95.13232422 -3.91479492 C-93.68336339 -3.92978417 -92.23444717 -3.95018271 -90.78564453 -3.97631836 C-75.35101764 -4.24756783 -75.35101764 -4.24756783 -68.9375 -0.75 C-66.06977936 2.01883372 -65.4127943 4.62520254 -64.75 8.5 C-64.59144531 9.39203125 -64.43289063 10.2840625 -64.26953125 11.203125 C-64.15996094 11.87859375 -64.05039063 12.5540625 -63.9375 13.25 C-63.47601562 12.66992188 -63.01453125 12.08984375 -62.5390625 11.4921875 C-47.97040791 -5.95564784 -20.10727327 -12.57545184 0 0 Z " fill="#162B4F" transform="translate(1184.9375,372.75)"/>
<path d="M0 0 C19.97276345 -0.68359161 37.13633497 6.42498263 51.8125 19.78515625 C62.71159593 31.28851417 67.65761676 46.15666331 68.0625 61.78515625 C67.4673173 79.51044109 61.66138959 94.87374508 48.625 107.16015625 C35.73835618 118.87741316 20.47496915 123.76633163 3.25 123.59765625 C1.61091675 123.58629639 1.61091675 123.58629639 -0.0612793 123.57470703 C-8.45384917 123.40387543 -15.56795565 122.41564272 -23.375 119.16015625 C-24.39207031 118.75925781 -25.40914062 118.35835938 -26.45703125 117.9453125 C-40.49216031 111.72949796 -51.03097008 100.09241905 -57.1875 86.16015625 C-63.67543053 69.34275738 -62.97104568 51.64849735 -56.08984375 35.0625 C-52.59715545 28.14522595 -47.81973709 22.62420092 -42.375 17.16015625 C-41.83359375 16.59554688 -41.2921875 16.0309375 -40.734375 15.44921875 C-30.04312421 5.2439339 -14.36343701 0.96858704 0 0 Z M-24.16015625 39.4140625 C-30.54041192 49.18039981 -32.62427199 59.72764963 -30.375 71.16015625 C-28.00095373 79.89921308 -23.17787847 87.85029091 -15.625 93.03515625 C-6.3744096 98.22626426 2.93076841 99.31527548 13.0625 96.53515625 C23.81970876 92.99465291 29.47766785 87.17941178 34.625 77.2265625 C38.85508801 67.44448399 38.25845773 56.99577992 34.625 47.16015625 C30.3540384 37.62213019 23.89551257 31.67167495 14.25 27.72265625 C0.00669404 23.14019987 -14.81755395 27.61826048 -24.16015625 39.4140625 Z " fill="#162B4F" transform="translate(997.375,364.83984375)"/>
<path d="M0 0 C0.61359375 0.5465625 1.2271875 1.093125 1.859375 1.65625 C12.96716498 12.09947135 17.31396515 25.98794329 18 41 C17.67 45.95 17.34 50.9 17 56 C-9.4 56 -35.8 56 -63 56 C-58.52998685 71.24662056 -58.52998685 71.24662056 -47.51953125 80.7109375 C-36.19427351 86.50525542 -25.37215645 85.9594263 -13.484375 82.3515625 C-8.9712466 80.6009544 -5.16155044 78.25703757 -1.20703125 75.48828125 C1 74 1 74 4 73 C6.00712206 76.28737411 8.00447034 79.58057828 10 82.875 C10.57234375 83.81214844 11.1446875 84.74929688 11.734375 85.71484375 C12.27578125 86.61074219 12.8171875 87.50664062 13.375 88.4296875 C13.87773438 89.25710449 14.38046875 90.08452148 14.8984375 90.93701172 C16 93 16 93 16 95 C2.54188153 106.78724597 -16.30730047 112.74602803 -34.05419922 111.90234375 C-51.57836251 110.66674173 -68.34411551 104.98420722 -80.21484375 91.48046875 C-93.15362052 75.39849496 -95.22780542 58.12329596 -94 38 C-92.03205003 22.20840143 -83.70925212 8.84436528 -71.4375 -1.0703125 C-51.1345861 -15.0285658 -19.03192155 -17.48879277 0 0 Z M-56.52734375 21.0625 C-59.53673075 25.0217996 -62 28.95753355 -62 34 C-37.745 34.495 -37.745 34.495 -13 35 C-14.05833078 26.53335376 -15.64723707 21.72265415 -22 16.125 C-33.15961839 8.22027031 -47.5654799 11.23199214 -56.52734375 21.0625 Z " fill="#162B4F" transform="translate(1467,382)"/>
<path d="M0 0 C10.76056057 9.90720858 17.22771484 22.29005752 18.23046875 36.94140625 C18.66126521 50.90915314 14.9666321 63.42374283 5.76953125 74.046875 C-3.83566889 84.14262078 -14.71245914 91.24289017 -28.94921875 92.09765625 C-45.19176441 92.4958282 -59.00902097 88.73762264 -71.32421875 77.61328125 C-82.51514762 65.76250987 -86.73764317 51.92658669 -86.29296875 35.92578125 C-85.53857755 22.57620025 -79.06228518 9.91279005 -69.39453125 0.859375 C-49.39678443 -15.70833758 -20.23724506 -17.06492016 0 0 Z " fill="#00B0B8" transform="translate(248.98046875,372.140625)"/>
<path d="M0 0 C10.73045007 10.21641654 17.07475474 22.58747925 17.46435547 37.49584961 C17.60789023 53.09737817 12.85456189 66.18813599 2.2109375 77.79296875 C-9.6868894 88.75629201 -23.46780832 92.21187013 -39.17578125 91.9453125 C-53.05758529 91.37455646 -65.22856778 84.38840632 -74.6875 74.453125 C-83.92994505 62.44469275 -88.0368395 48.75202736 -86.828125 33.671875 C-84.5980706 19.24211125 -77.81403931 6.6076696 -66.19140625 -2.36328125 C-45.6023879 -16.19698687 -19.49558695 -16.04885335 0 0 Z " fill="#F59293" transform="translate(800.828125,67.328125)"/>
<path d="M0 0 C11.7442564 8.22694103 18.4463466 19.05294064 21.890625 32.96875 C24.14876471 47.27733623 21.6926369 61.63079333 13.30859375 73.6171875 C3.97703106 85.81419974 -7.45933428 92.37077311 -22.44140625 95.3671875 C-38.19039965 96.57864853 -52.78729298 92.72996928 -65.00390625 82.4296875 C-74.9812579 72.86872613 -80.96245512 60.41127147 -81.89453125 46.609375 C-82.13085128 30.8940933 -77.81032666 18.29418609 -66.94140625 6.87109375 C-66.19890625 6.12730469 -65.45640625 5.38351562 -64.69140625 4.6171875 C-63.82515625 3.73353516 -63.82515625 3.73353516 -62.94140625 2.83203125 C-46.04311071 -13.05074172 -18.45867844 -11.87262197 0 0 Z " fill="#5DB8F1" transform="translate(781.69140625,690.3828125)"/>
<path d="M0 0 C10.65980828 7.96274835 17.57837008 19.20418866 20.40625 32.25 C21.89833942 49.81549409 19.11722404 64.36321809 7.75 78.27734375 C-0.83771903 87.53344657 -13.77818635 93.68984439 -26.34375 94.48828125 C-43.16956851 94.9259585 -56.84582165 90.40003362 -69.234375 78.76171875 C-79.26642643 68.08190241 -83.74851743 54.78094183 -83.59375 40.25 C-82.99780313 32.28264884 -81.48680674 25.24533632 -77.59375 18.25 C-77.09875 17.35410156 -76.60375 16.45820312 -76.09375 15.53515625 C-69.04399503 3.63869474 -59.52396077 -3.60602646 -46.32421875 -7.78515625 C-29.86572158 -11.98275636 -14.14367721 -9.54272197 0 0 Z " fill="#253F6D" transform="translate(424.59375,681.75)"/>
<path d="M0 0 C14.41193417 -0.62359331 27.33325512 4.878375 38.23828125 13.96875 C48.66576701 24.01068166 53.55880224 36.79842534 54.5234375 51 C54.71192373 66.47471971 49.10037234 79.274344 38.53515625 90.328125 C26.68241453 101.66646202 13.18635419 104.86048411 -2.66796875 104.515625 C-15.78005275 103.89000389 -27.89999483 97.82124546 -36.81640625 88.19921875 C-48.0809487 74.3560461 -51.18391495 59.68991914 -49.4375 42.20703125 C-46.96375122 29.40746594 -39.60897629 18.24472294 -29.4375 10.20703125 C-20.16520861 4.24855692 -10.97106211 0.93183701 0 0 Z " fill="#F5C261" transform="translate(399.4375,47.79296875)"/>
<path d="M0 0 C4.36665513 3.94888858 6.36658558 8.33874888 7.1875 14.125 C7.10262779 16.92030745 6.96605061 19.65439334 6.75 22.4375 C6.4715625 26.2428125 6.4715625 26.2428125 6.1875 30.125 C-2.3925 30.125 -10.9725 30.125 -19.8125 30.125 C-20.4725 26.825 -21.1325 23.525 -21.8125 20.125 C-28.35601024 15.21736732 -34.08706324 14.63540443 -42.0078125 15.58984375 C-50.93896941 17.29397815 -58.32679446 21.01316855 -63.50390625 28.60546875 C-69.52127129 38.88573818 -70.84468142 48.38841599 -68.8125 60.125 C-67.82109632 63.36914769 -66.50645604 66.19226658 -64.8125 69.125 C-64.47476563 69.75019531 -64.13703125 70.37539063 -63.7890625 71.01953125 C-59.35423601 78.23791905 -51.85436623 81.7694103 -43.9375 84.0625 C-32.52771633 86.49600431 -20.94787009 84.3393957 -11.07177734 78.00927734 C-7.5232006 75.53945207 -4.14454565 72.88069181 -0.8125 70.125 C2.74834172 73.46665314 5.0027542 77.40275211 7.5 81.5625 C7.98017578 82.32626953 8.46035156 83.09003906 8.95507812 83.87695312 C9.39916016 84.61751953 9.84324219 85.35808594 10.30078125 86.12109375 C10.71110596 86.79325928 11.12143066 87.4654248 11.54418945 88.15795898 C12.1875 90.125 12.1875 90.125 11.42138672 92.25683594 C4.75097319 102.35616406 -9.85540061 108.01743148 -21.125 111.0625 C-39.22354831 114.6421883 -59.35374735 112.2611596 -74.875 101.9375 C-88.85003357 91.57104317 -97.65836562 78.39700732 -100.53125 61.20458984 C-102.72630294 44.97415503 -99.89460768 28.91309084 -90.8125 15.125 C-90.31105469 14.34769531 -89.80960938 13.57039063 -89.29296875 12.76953125 C-80.22704626 -0.04628619 -65.96278414 -7.47667276 -50.8125 -10.3671875 C-33.36581144 -12.8760355 -14.22724431 -11.31110106 0 0 Z " fill="#162B4F" transform="translate(913.8125,374.875)"/>
<path d="M0 0 C4.27951155 4.55122656 7.13568366 8.47651213 7.09765625 14.7890625 C7.09515869 15.63678223 7.09266113 16.48450195 7.09008789 17.35791016 C7.08098389 18.4360498 7.07187988 19.51418945 7.0625 20.625 C7.041875 24.04875 7.02125 27.4725 7 31 C-1.58 31 -10.16 31 -19 31 C-19.66 27.7 -20.32 24.4 -21 21 C-27.36430916 16.22676813 -33.62797632 15.40771963 -41.453125 16.46484375 C-49.98457711 18.2574955 -57.54806693 21.80373905 -62.46875 29.2109375 C-68.41919071 39.62420874 -70.6821631 49.69340224 -67.875 61.5 C-65.26568761 70.1373072 -61.04493528 76.11943155 -53.27734375 80.78515625 C-43.14341356 86.19107784 -32.98446534 87.22219857 -21.87890625 84.0078125 C-13.48133902 81.06809426 -6.79529334 76.69557195 0 71 C3.56084172 74.34165314 5.8152542 78.27775211 8.3125 82.4375 C8.79267578 83.20126953 9.27285156 83.96503906 9.76757812 84.75195312 C10.21166016 85.49251953 10.65574219 86.23308594 11.11328125 86.99609375 C11.52360596 87.66825928 11.93393066 88.3404248 12.35668945 89.03295898 C13 91 13 91 12.23388672 93.13183594 C5.57518202 103.21343632 -9.00380659 108.87165874 -20.25 111.9375 C-38.68738452 115.55710923 -57.9400434 113.01516738 -74 103 C-87.54333954 93.61691503 -95.86613812 80.5554311 -99.4921875 64.48828125 C-102.3008063 45.1952306 -98.52768858 27.94354424 -87.44921875 11.73046875 C-79.55770614 1.80243675 -67.90849504 -4.34293959 -56 -8 C-55.21753906 -8.24492187 -54.43507813 -8.48984375 -53.62890625 -8.7421875 C-36.58770224 -13.05417326 -14.25848658 -10.74269537 0 0 Z " fill="#162B4F" transform="translate(1600,382)"/>
<path d="M0 0 C5.34302796 3.24929324 9.81065375 8.41276713 12.02734375 14.29296875 C13.57690882 21.32364 13.74222864 29.27428302 9.9609375 35.58984375 C5.30109272 41.48317686 0.1369242 46.34651083 -7.5 47.4375 C-14.46229473 48.24737293 -20.45952615 47.07341925 -26.5 43.4375 C-32.17337104 38.44607005 -36.07952093 33.57845164 -36.70703125 25.90625 C-37.00450824 17.88538887 -35.74939527 10.90633661 -30.1171875 4.82421875 C-21.86271154 -2.25389469 -10.14373453 -4.46946157 0 0 Z " fill="#F59293" transform="translate(2074.5,449.5625)"/>
</svg>
